# xmcd CD Database Entry
#
# Track frame offsets:
# 150
# 11582
# 40085
# 71355
# 88862
# 106497
# 132200
# 147200
# 173900
# 184147
# 202230
# 222925
# 239185
# 267672
# 302870
# 319310
#
# Disc length: 4397 seconds
#
# Revision: 1
# Processed by: cddbd v1.5.1PL0 Copyright (c) Steve Scherf et al.
# Submitted via: tcd 2.0b
#
DISCID=fb112b10
DTITLE=Bram/Fascinatin' Rhythm
DYEAR=1900
DGENRE=
TTITLE0=Fascinatin' Rhythm * Gershwin
TTITLE1=It Don't Mean a Thing * Mills/Ellington
TTITLE2=Wave * Jobim
TTITLE3=Feed Bag * Freddie Green
TTITLE4=Northeast * Bram Wijnands
TTITLE5=Dinah * Lewis/Young/AKST
TTITLE6=Learning the Blues * Dolores Vicki Silver
TTITLE7=Is You Is or Is You Ain't * Billy Austin/Louis Jordan
TTITLE8=Up in the Blues * Freddie Green
TTITLE9=Sweet Lorranie * Burwell Clifford/Parish Mitchell
TTITLE10=Ochi Chorny'ye * Russian Romance
TTITLE11=Down for Double * Freddie Green
TTITLE12=Groovin' High * Dizzy Gillespie
TTITLE13=I Remember You * Mercer/Schertzinger
TTITLE14=Back to Basie * Bram Wijnands
TTITLE15=Rosetta * Earl Hines/Henri Woode
EXTD=\t
EXTT0=
EXTT1=
EXTT2=
EXTT3=
EXTT4=
EXTT5=
EXTT6=
EXTT7=
EXTT8=
EXTT9=
EXTT10=
EXTT11=
EXTT12=
EXTT13=
EXTT14=
EXTT15=
PLAYORDER=
